<svg xmlns="http://www.w3.org/2000/svg" width="50" height="50" viewBox="0 0 50 50" fill="none">
<path d="M10.0124 15.625H39.9874L24.9999 32.7531L10.0124 15.625ZM7.65932 17.6844L22.6468 34.8094C22.9401 35.145 23.3019 35.4141 23.7077 35.5984C24.1136 35.7827 24.5542 35.8781 24.9999 35.8781C25.4457 35.8781 25.8863 35.7827 26.2922 35.5984C26.698 35.4141 27.0598 35.145 27.3531 34.8094L42.3406 17.6844C44.1093 15.6625 42.6718 12.5 39.9874 12.5H10.0124C9.41168 12.4995 8.8235 12.6721 8.31835 12.9973C7.81319 13.3225 7.41247 13.7864 7.16417 14.3334C6.91587 14.8805 6.83052 15.4875 6.91834 16.0818C7.00615 16.6761 7.26342 17.2325 7.65932 17.6844Z" fill="white"/>
</svg>
