<svg xmlns="http://www.w3.org/2000/svg" width="31" height="38" viewBox="0 0 31 38" fill="none">
<g clip-path="url(#clip0_5_171)">
<path d="M30.0136 12.9542C29.7928 13.1252 25.893 15.3178 25.893 20.1932C25.893 25.8324 30.8553 27.8274 31.0038 27.8768C30.981 27.9984 30.2155 30.609 28.3875 33.269C26.7575 35.6098 25.0552 37.9468 22.4655 37.9468C19.8758 37.9468 19.2093 36.4458 16.2198 36.4458C13.3064 36.4458 12.2705 37.9962 9.90172 37.9962C7.53292 37.9962 5.8801 35.8302 3.97973 33.1702C1.7785 30.0466 0 25.194 0 20.5884C0 13.2012 4.81376 9.2834 9.55135 9.2834C12.0687 9.2834 14.1671 10.9326 15.7475 10.9326C17.2518 10.9326 19.5978 9.1846 22.4617 9.1846C23.5471 9.1846 27.4468 9.2834 30.0136 12.9542ZM21.1021 6.0572C22.2865 4.655 23.1243 2.7094 23.1243 0.7638C23.1243 0.494 23.1015 0.2204 23.052 0C21.1249 0.0722 18.8323 1.2806 17.4499 2.8804C16.3645 4.1116 15.3515 6.0572 15.3515 8.0294C15.3515 8.3258 15.401 8.6222 15.4238 8.7172C15.5457 8.74 15.7437 8.7666 15.9418 8.7666C17.6708 8.7666 19.8453 7.6114 21.1021 6.0572Z" fill="white"/>
</g>
<defs>
<clipPath id="clip0_5_171">
<rect width="31" height="38" fill="white"/>
</clipPath>
</defs>
</svg>