<svg width="14" height="16" viewBox="0 0 14 16" fill="none" xmlns="http://www.w3.org/2000/svg">
<g id="Group">
<path id="Vector" d="M12.0909 1.63625H7.63636V0.999889C7.63636 0.648616 7.35127 0.363525 7 0.363525C6.64873 0.363525 6.36364 0.648616 6.36364 0.999889V1.63625H1.90909C0.856545 1.63625 0 2.4928 0 3.54534V4.81807C0 5.16934 0.285091 5.45443 0.636364 5.45443H1.38218L3.19455 15.117C3.24927 15.4173 3.51273 15.6363 3.81818 15.6363H10.1818C10.4873 15.6363 10.7507 15.4186 10.8067 15.117L12.6178 5.45443H13.3636C13.7149 5.45443 14 5.16934 14 4.81807V3.54534C14 2.49153 13.1435 1.63625 12.0909 1.63625ZM9.65364 14.3635H4.34636L2.67527 5.45443H11.3247L9.65364 14.3635ZM12.7273 4.18171H1.27273V3.54534C1.27273 3.19407 1.55909 2.90898 1.90909 2.90898H12.0909C12.4409 2.90898 12.7273 3.19407 12.7273 3.54534V4.18171Z" fill="#C30000"/>
<path id="Vector_2" d="M5.726 13.0908C5.754 13.0908 5.77945 13.0895 5.80745 13.0857C6.15618 13.0424 6.40309 12.7242 6.35981 12.3755L5.72345 7.28461C5.67891 6.93461 5.35181 6.6877 5.012 6.73224C4.66327 6.77552 4.41636 7.0937 4.45963 7.44243L5.096 12.5333C5.13545 12.8553 5.41036 13.0908 5.726 13.0908Z" fill="#C30000"/>
<path id="Vector_3" d="M8.19383 13.0844C8.22056 13.0882 8.24728 13.0908 8.27401 13.0908C8.58965 13.0908 8.86456 12.8553 8.90528 12.5333L9.54165 7.44243C9.58492 7.0937 9.33674 6.77552 8.98928 6.73224C8.64056 6.6877 8.3211 6.93461 8.27783 7.28461L7.64147 12.3755C7.59819 12.723 7.84638 13.0412 8.19383 13.0844Z" fill="#C30000"/>
</g>
</svg>
