<svg width="20" height="14" viewBox="0 0 20 14" fill="none" xmlns="http://www.w3.org/2000/svg">
<path id="Vector" d="M10.0002 2.41667C13.1585 2.41667 15.9752 4.19167 17.3502 7C15.9752 9.80833 13.1668 11.5833 10.0002 11.5833C6.8335 11.5833 4.02516 9.80833 2.65016 7C4.02516 4.19167 6.84183 2.41667 10.0002 2.41667ZM10.0002 0.75C5.8335 0.75 2.27516 3.34167 0.833496 7C2.27516 10.6583 5.8335 13.25 10.0002 13.25C14.1668 13.25 17.7252 10.6583 19.1668 7C17.7252 3.34167 14.1668 0.75 10.0002 0.75ZM10.0002 4.91667C11.1502 4.91667 12.0835 5.85 12.0835 7C12.0835 8.15 11.1502 9.08333 10.0002 9.08333C8.85016 9.08333 7.91683 8.15 7.91683 7C7.91683 5.85 8.85016 4.91667 10.0002 4.91667ZM10.0002 3.25C7.9335 3.25 6.25016 4.93333 6.25016 7C6.25016 9.06667 7.9335 10.75 10.0002 10.75C12.0668 10.75 13.7502 9.06667 13.7502 7C13.7502 4.93333 12.0668 3.25 10.0002 3.25Z" fill="#A3AED0"/>
</svg>
