<svg xmlns="http://www.w3.org/2000/svg" width="40" height="40" viewBox="0 0 40 40" fill="none">
<path d="M3.75 4.64766V35.3508C3.75021 35.4174 3.77007 35.4825 3.80711 35.5378C3.84415 35.5932 3.89671 35.6364 3.9582 35.662C4.01969 35.6876 4.08738 35.6945 4.15277 35.6818C4.21816 35.6691 4.27835 35.6374 4.32578 35.5906L20.3125 20L4.32578 4.40782C4.27835 4.36105 4.21816 4.32933 4.15277 4.31663C4.08738 4.30393 4.01969 4.31082 3.9582 4.33643C3.89671 4.36205 3.84415 4.40525 3.80711 4.46061C3.77007 4.51598 3.75021 4.58105 3.75 4.64766Z" fill="white"/>
<path d="M27.0156 13.5937L6.97026 2.54999L6.95776 2.54296C6.61245 2.35546 6.28433 2.82265 6.56714 3.09452L22.2804 18.1195L27.0156 13.5937Z" fill="white"/>
<path d="M6.56879 36.9055C6.28441 37.1773 6.61254 37.6445 6.95941 37.457L6.97191 37.45L27.0157 26.4063L22.2805 21.8789L6.56879 36.9055Z" fill="white"/>
<path d="M35.1078 18.0469L29.5101 14.9641L24.2468 20L29.5101 25.0336L35.1078 21.9532C36.6304 21.1118 36.6304 18.8883 35.1078 18.0469Z" fill="white"/>
</svg>