<svg xmlns="http://www.w3.org/2000/svg" width="175" height="81" viewBox="0 0 175 81" fill="none">
  <path d="M1 80.0095L174 80.0095" stroke="white" stroke-opacity="0.2" stroke-linecap="round"/>
  <rect x="10.9543" y="20.2513" width="8.9246" height="48.8024" rx="4.4623" fill="url(#paint0_linear_5_231)"/>
  <rect x="34.1809" y="40.5027" width="8.9246" height="28.5511" rx="4.4623" fill="url(#paint1_linear_5_231)"/>
  <rect x="57.4082" y="13.6116" width="8.9246" height="55.4422" rx="4.4623" fill="url(#paint2_linear_5_231)"/>
  <rect x="80.6349" y="51.4583" width="8.9246" height="17.5954" rx="4.4623" fill="url(#paint3_linear_5_231)"/>
  <rect x="103.862" width="8.9246" height="69.0537" rx="4.4623" fill="url(#paint4_linear_5_231)"/>
  <rect x="127.089" y="29.879" width="8.9246" height="39.1747" rx="4.4623" fill="url(#paint5_linear_5_231)"/>
  <rect x="150.315" y="10.9556" width="8.9246" height="58.0981" rx="4.4623" fill="url(#paint6_linear_5_231)"/>
  <defs>
    <linearGradient id="paint0_linear_5_231" x1="15.4166" y1="20.2513" x2="15.4166" y2="87.5033" gradientUnits="userSpaceOnUse">
      <stop stop-color="#C18FFF"/>
      <stop offset="1" stop-opacity="0"/>
    </linearGradient>
    <linearGradient id="paint1_linear_5_231" x1="38.6432" y1="40.5027" x2="38.6432" y2="79.8474" gradientUnits="userSpaceOnUse">
      <stop stop-color="#C18FFF"/>
      <stop offset="1" stop-opacity="0"/>
    </linearGradient>
    <linearGradient id="paint2_linear_5_231" x1="61.8705" y1="13.6116" x2="61.8705" y2="90.0135" gradientUnits="userSpaceOnUse">
      <stop stop-color="#C18FFF"/>
      <stop offset="1" stop-opacity="0"/>
    </linearGradient>
    <linearGradient id="paint3_linear_5_231" x1="85.0972" y1="51.4583" x2="85.0972" y2="75.7056" gradientUnits="userSpaceOnUse">
      <stop stop-color="#C18FFF"/>
      <stop offset="1" stop-opacity="0"/>
    </linearGradient>
    <linearGradient id="paint4_linear_5_231" x1="108.324" y1="0" x2="108.324" y2="95.1593" gradientUnits="userSpaceOnUse">
      <stop stop-color="#C18FFF"/>
      <stop offset="1" stop-opacity="0"/>
    </linearGradient>
    <linearGradient id="paint5_linear_5_231" x1="131.551" y1="29.879" x2="131.551" y2="83.8636" gradientUnits="userSpaceOnUse">
      <stop stop-color="#C18FFF"/>
      <stop offset="1" stop-opacity="0"/>
    </linearGradient>
    <linearGradient id="paint6_linear_5_231" x1="154.778" y1="10.9556" x2="154.778" y2="91.0175" gradientUnits="userSpaceOnUse">
      <stop stop-color="#C18FFF"/>
      <stop offset="1" stop-opacity="0"/>
    </linearGradient>
  </defs>
</svg>