<svg xmlns="http://www.w3.org/2000/svg" width="29" height="29" viewBox="0 0 29 29" fill="none">
  <path d="M13.4884 1.01163C13.4884 0.452921 13.9413 0 14.5 0C22.5081 0 29 6.49187 29 14.5C29 22.5081 22.5081 29 14.5 29C6.49187 29 0 22.5081 0 14.5C0 10.444 1.66668 6.77543 4.34996 4.14497C4.74893 3.75385 5.38942 3.76021 5.78054 4.15919C6.17166 4.55816 6.1653 5.19865 5.76632 5.58977C3.45523 7.85538 2.02326 11.0096 2.02326 14.5C2.02326 21.3907 7.60928 26.9767 14.5 26.9767C21.3907 26.9767 26.9767 21.3907 26.9767 14.5C26.9767 7.60928 21.3907 2.02326 14.5 2.02326C13.9413 2.02326 13.4884 1.57033 13.4884 1.01163Z" fill="white"/>
  <path d="M13.4884 5.05814C13.4884 4.49943 13.9413 4.04651 14.5 4.04651C20.2733 4.04651 24.9535 8.7267 24.9535 14.5C24.9535 20.2733 20.2733 24.9535 14.5 24.9535C8.7267 24.9535 4.04651 20.2733 4.04651 14.5C4.04651 13.9413 4.49943 13.4884 5.05814 13.4884C5.61685 13.4884 6.06977 13.9413 6.06977 14.5C6.06977 19.1559 9.84411 22.9302 14.5 22.9302C19.1559 22.9302 22.9302 19.1559 22.9302 14.5C22.9302 9.84411 19.1559 6.06977 14.5 6.06977C13.9413 6.06977 13.4884 5.61685 13.4884 5.05814Z" fill="white"/>
  <path d="M14.5 8.09302C13.9413 8.09302 13.4884 8.54594 13.4884 9.10465C13.4884 9.66336 13.9413 10.1163 14.5 10.1163C16.9211 10.1163 18.8837 12.0789 18.8837 14.5C18.8837 16.9211 16.9211 18.8837 14.5 18.8837C13.9413 18.8837 13.4884 19.3366 13.4884 19.8953C13.4884 20.4541 13.9413 20.907 14.5 20.907C18.0385 20.907 20.907 18.0385 20.907 14.5C20.907 10.9615 18.0385 8.09302 14.5 8.09302Z" fill="white"/>
</svg>