<svg xmlns="http://www.w3.org/2000/svg" width="21" height="21" viewBox="0 0 21 21" fill="none">
  <path fill-rule="evenodd" clip-rule="evenodd" d="M7.93902 0C5.25169 0 3.07317 2.17852 3.07317 4.86585C3.07317 7.55319 5.25169 9.73171 7.93902 9.73171C10.6264 9.73171 12.8049 7.55319 12.8049 4.86585C12.8049 2.17852 10.6264 0 7.93902 0ZM4.60976 4.86585C4.60976 3.02715 6.10032 1.53659 7.93902 1.53659C9.77773 1.53659 11.2683 3.02715 11.2683 4.86585C11.2683 6.70456 9.77773 8.19512 7.93902 8.19512C6.10032 8.19512 4.60976 6.70456 4.60976 4.86585Z" fill="white"/>
  <path d="M14.0854 1.02439C13.661 1.02439 13.3171 1.36837 13.3171 1.79268C13.3171 2.217 13.661 2.56098 14.0854 2.56098C15.3583 2.56098 16.3902 3.5929 16.3902 4.86585C16.3902 6.1388 15.3583 7.17073 14.0854 7.17073C13.661 7.17073 13.3171 7.51471 13.3171 7.93902C13.3171 8.36334 13.661 8.70732 14.0854 8.70732C16.2069 8.70732 17.9268 6.98743 17.9268 4.86585C17.9268 2.74427 16.2069 1.02439 14.0854 1.02439Z" fill="white"/>
  <path fill-rule="evenodd" clip-rule="evenodd" d="M2.48737 12.5697C3.92087 11.7505 5.84995 11.2683 7.93902 11.2683C10.0281 11.2683 11.9572 11.7505 13.3907 12.5697C14.8024 13.3764 15.878 14.6079 15.878 16.1341C15.878 17.6603 14.8024 18.8919 13.3907 19.6986C11.9572 20.5178 10.0281 21 7.93902 21C5.84995 21 3.92087 20.5178 2.48737 19.6986C1.07561 18.8919 0 17.6603 0 16.1341C0 14.6079 1.07561 13.3764 2.48737 12.5697ZM3.24973 13.9038C2.0662 14.5801 1.53659 15.3973 1.53659 16.1341C1.53659 16.871 2.0662 17.6882 3.24973 18.3645C4.41153 19.0284 6.06781 19.4634 7.93902 19.4634C9.81024 19.4634 11.4665 19.0284 12.6283 18.3645C13.8118 17.6882 14.3415 16.871 14.3415 16.1341C14.3415 15.3973 13.8118 14.5801 12.6283 13.9038C11.4665 13.2399 9.81024 12.8049 7.93902 12.8049C6.06781 12.8049 4.41153 13.2399 3.24973 13.9038Z" fill="white"/>
  <path d="M17.3231 12.3105C16.9086 12.2196 16.499 12.4819 16.4081 12.8964C16.3172 13.3109 16.5795 13.7205 16.994 13.8114C17.8057 13.9894 18.4543 14.2952 18.8825 14.6455C19.3112 14.9963 19.4634 15.3389 19.4634 15.622C19.4634 15.8788 19.3399 16.1803 18.9993 16.4967C18.6562 16.8154 18.1291 17.1098 17.4492 17.3145C17.0429 17.4369 16.8127 17.8654 16.9351 18.2717C17.0574 18.678 17.4859 18.9082 17.8922 18.7859C18.7349 18.5321 19.4883 18.1397 20.0451 17.6225C20.6043 17.103 21 16.4196 21 15.622C21 14.7361 20.5142 13.9953 19.8556 13.4563C19.1964 12.9169 18.3085 12.5266 17.3231 12.3105Z" fill="white"/>
</svg>