<svg xmlns="http://www.w3.org/2000/svg" width="20" height="20" viewBox="0 0 20 20" fill="none">
  <path d="M10.75 10C10.75 9.30964 11.3096 8.75 12 8.75C12.6904 8.75 13.25 9.30964 13.25 10C13.25 10.6904 12.6904 11.25 12 11.25C11.3096 11.25 10.75 10.6904 10.75 10Z" fill="#A3AED0"/>
  <path fill-rule="evenodd" clip-rule="evenodd" d="M10 0C4.47715 0 0 4.47715 0 10C0 15.5228 4.47715 20 10 20C15.5228 20 20 15.5228 20 10C20 4.47715 15.5228 0 10 0ZM5.75 6C5.75 5.58579 5.41421 5.25 5 5.25C4.58579 5.25 4.25 5.58579 4.25 6L4.25 14C4.25 14.4142 4.58579 14.75 5 14.75C5.41421 14.75 5.75 14.4142 5.75 14L5.75 6ZM9.53033 6.46967C9.23744 6.17678 8.76256 6.17678 8.46967 6.46967C8.17678 6.76256 8.17678 7.23744 8.46967 7.53033L9.46967 8.53033C9.51262 8.57328 9.55949 8.60994 9.60912 8.64029C9.38057 9.04131 9.25 9.5054 9.25 10C9.25 10.4946 9.38057 10.9587 9.60912 11.3597C9.55949 11.3901 9.51262 11.4267 9.46967 11.4697L8.46967 12.4697C8.17678 12.7626 8.17678 13.2374 8.46967 13.5303C8.76256 13.8232 9.23744 13.8232 9.53033 13.5303L10.5303 12.5303C10.5733 12.4874 10.6099 12.4405 10.6403 12.3909C11.0413 12.6194 11.5054 12.75 12 12.75C12.4946 12.75 12.9587 12.6194 13.3597 12.3909C13.3901 12.4405 13.4267 12.4874 13.4697 12.5303L14.4697 13.5303C14.7626 13.8232 15.2374 13.8232 15.5303 13.5303C15.8232 13.2374 15.8232 12.7626 15.5303 12.4697L14.5303 11.4697C14.4874 11.4267 14.4405 11.3901 14.3909 11.3597C14.6194 10.9587 14.75 10.4946 14.75 10C14.75 9.5054 14.6194 9.0413 14.3909 8.64029C14.4405 8.60993 14.4874 8.57328 14.5303 8.53033L15.5303 7.53033C15.8232 7.23744 15.8232 6.76256 15.5303 6.46967C15.2374 6.17678 14.7626 6.17678 14.4697 6.46967L13.4697 7.46967C13.4267 7.51262 13.3901 7.55949 13.3597 7.60912C12.9587 7.38057 12.4946 7.25 12 7.25C11.5054 7.25 11.0413 7.38057 10.6403 7.60912C10.6099 7.55949 10.5733 7.51262 10.5303 7.46967L9.53033 6.46967Z" fill="#A3AED0"/>
</svg>