<svg width="14" height="14" viewBox="0 0 14 14" fill="none" xmlns="http://www.w3.org/2000/svg">
<g id="Menu_1">
<g id="Group">
<path id="Vector" d="M0.291667 1.58333H13.7083C13.8693 1.58333 14 1.39667 14 1.16667C14 0.936667 13.8693 0.75 13.7083 0.75H0.291667C0.130667 0.75 0 0.936667 0 1.16667C0 1.39667 0.130667 1.58333 0.291667 1.58333Z" fill="#1B254B"/>
<path id="Vector_2" d="M13.7083 6.58325H0.291667C0.130667 6.58325 0 6.76992 0 6.99992C0 7.22992 0.130667 7.41659 0.291667 7.41659H13.7083C13.8693 7.41659 14 7.22992 14 6.99992C14 6.76992 13.8693 6.58325 13.7083 6.58325Z" fill="#1B254B"/>
<path id="Vector_3" d="M13.7083 12.4167H0.291667C0.130667 12.4167 0 12.6034 0 12.8334C0 13.0634 0.130667 13.2501 0.291667 13.2501H13.7083C13.8693 13.2501 14 13.0634 14 12.8334C14 12.6034 13.8693 12.4167 13.7083 12.4167Z" fill="#1B254B"/>
</g>
</g>
</svg>
